<svg width="204" height="176" viewBox="0 0 204 176" fill="none" xmlns="http://www.w3.org/2000/svg">
<g clip-path="url(#clip0_1910_10845)">
<rect x="55" y="61" width="94" height="61" fill="white"/>
<path d="M144.792 52.293H60.2083C57.0036 52.293 53.9302 53.566 51.6641 55.8321C49.3981 58.0982 48.125 61.1716 48.125 64.3763V118.751C48.125 121.956 49.3981 125.029 51.6641 127.296C53.9302 129.562 57.0036 130.835 60.2083 130.835H144.792C147.996 130.835 151.07 129.562 153.336 127.296C155.602 125.029 156.875 121.956 156.875 118.751V64.3763C156.875 61.1716 155.602 58.0982 153.336 55.8321C151.07 53.566 147.996 52.293 144.792 52.293ZM86.2842 96.4938L95.9629 104.952C97.8056 106.559 100.138 107.357 102.5 107.357C104.862 107.357 107.194 106.553 109.037 104.952L118.716 96.4938L118.492 96.7173L140.52 118.745H64.4798L86.5077 96.7173L86.2842 96.4938ZM60.2083 114.48V73.6805L81.9704 92.7178L60.2083 114.48ZM123.03 92.7178L144.792 73.6805V114.462L123.03 92.7178ZM144.792 64.3763V65.6451L105.062 100.409C104.334 100.989 103.431 101.305 102.5 101.305C101.569 101.305 100.666 100.989 99.9383 100.409L60.2083 65.6451V64.3763H144.792Z" fill="#E75851"/>
</g>
<path d="M155.811 10L164.873 16.6103L176.09 16.5889L179.536 27.2633L188.623 33.839L185.136 44.5L188.623 55.161L179.536 61.7367L176.09 72.411L164.873 72.3898L155.811 79L146.75 72.3898L135.533 72.411L132.087 61.7367L123 55.161L126.486 44.5L123 33.839L132.087 27.2633L135.533 16.5889L146.75 16.6103L155.811 10Z" fill="#E75851" stroke="#24232E" stroke-width="4.05882" stroke-linecap="round" stroke-linejoin="round"/>
<path d="M142.738 44.5L151.363 53.125L168.613 35.875" stroke="white" stroke-width="6.9" stroke-linecap="round" stroke-linejoin="round"/>
<defs>
<clipPath id="clip0_1910_10845">
<rect width="170" height="133" fill="white" transform="translate(17 22)"/>
</clipPath>
</defs>
</svg>
