<svg width="16" height="16" viewBox="0 0 16 16" fill="none" xmlns="http://www.w3.org/2000/svg">
<g opacity="0.7">
<path fill-rule="evenodd" clip-rule="evenodd" d="M7.00017 1.33398C6.09656 1.33406 5.20608 1.55023 4.40301 1.96445C3.59994 2.37867 2.90756 2.97893 2.38366 3.71515C1.85976 4.45138 1.51951 5.30222 1.39131 6.19668C1.26311 7.09114 1.35067 8.0033 1.64669 8.85704C1.94271 9.71078 2.4386 10.4814 3.09299 11.1045C3.74739 11.7276 4.54131 12.1852 5.40851 12.4391C6.27572 12.6929 7.19106 12.7357 8.07818 12.5639C8.9653 12.3921 9.79847 12.0106 10.5082 11.4513L12.9428 13.886C13.0686 14.0074 13.237 14.0746 13.4118 14.0731C13.5866 14.0716 13.7538 14.0015 13.8774 13.8779C14.001 13.7543 14.0711 13.587 14.0726 13.4123C14.0741 13.2375 14.0069 13.0691 13.8855 12.9433L11.4508 10.5087C12.1095 9.67306 12.5196 8.66892 12.6342 7.61113C12.7489 6.55335 12.5634 5.48466 12.099 4.52738C11.6346 3.5701 10.9101 2.76289 10.0084 2.19814C9.10665 1.63339 8.06415 1.33391 7.00017 1.33398ZM2.66684 7.00065C2.66684 5.85138 3.12338 4.74918 3.93604 3.93652C4.7487 3.12386 5.8509 2.66732 7.00017 2.66732C8.14944 2.66732 9.25164 3.12386 10.0643 3.93652C10.877 4.74918 11.3335 5.85138 11.3335 7.00065C11.3335 8.14992 10.877 9.25212 10.0643 10.0648C9.25164 10.8774 8.14944 11.334 7.00017 11.334C5.8509 11.334 4.7487 10.8774 3.93604 10.0648C3.12338 9.25212 2.66684 8.14992 2.66684 7.00065Z" fill="white"/>
</g>
</svg>
